<svg xmlns="http://www.w3.org/2000/svg" viewBox="0 0 512 512">
  <defs>
    <linearGradient id="bg" x1="0%" y1="0%" x2="100%" y2="100%">
      <stop offset="0%" style="stop-color:#10B981"/>
      <stop offset="100%" style="stop-color:#059669"/>
    </linearGradient>
  </defs>
  <rect width="512" height="512" rx="128" fill="url(#bg)"/>
  <path d="M256 96 L384 152 L384 240 C384 336 336 400 256 416 C176 400 128 336 128 240 L128 152 Z" fill="white" opacity="0.95"/>
  <path d="M256 144 L352 184 L352 240 C352 312 312 360 256 376 C200 360 160 312 160 240 L160 184 Z" fill="none" stroke="#10B981" stroke-width="16"/>
  <circle cx="256" cy="256" r="48" fill="#10B981"/>
  <path d="M244 244 L256 232 L268 244 L268 268 L244 268 Z" fill="white"/>
</svg>
